PathFileType	4	(X/Y/Z)	P:\Projects\LMB_grand_challenge_database\project_only\opensim\experimental_data\SixthCompetition/DM_ngait_og7_new.trc
DataRate	CameraRate	NumFrames	NumMarkers	Units	OrigDataRate	OrigDataStartFrame	OrigNumFrames
120	120	5	68	mm	120	0	314
Frame#	Time	Sternum			Neck			R_Shoulder			L_Shoulder			Xiphoid			Thoracic			R_Asis			L_Asis			R_Psis			L_Psis			Lumbar			R_Elbow			R_ElbowMedial			R_ShoulderAnterior			R_ShoulderPosterior			R_Wrist			R_Radius			R_Ulna			L_Elbow			L_ElbowMedial			L_ShoulderAnterior			L_ShoulderPosterior			L_Wrist			L_Ulna			L_Radius			L_Thigh_Superior			L_Thigh_Inferior			L_Thigh_Lateral			L_Knee_Lateral			L_Knee_Medial			L_Patella			L_Shank_Superior			L_Shank_Inferior			L_Shank_Lateral			L_Ankle_Lateral			L_Ankle_Medial			R_Thigh_Superior			R_Thigh_Inferior			R_Thigh_Lateral			R_Knee_Lateral			R_Knee_Medial			R_Patella			R_Shank_Superior			R_Shank_Inferior			R_Shank_Lateral			R_Ankle_Lateral			RankleMedial			R_Heel			R_Toe			R_Midfoot_Medial			R_Midfoot_Lateral			R_Hindfoot			R_Midfoot_Superior			R_ToeMedial			R_ToeLateral			L_Heel			L_Toe			L_Midfoot_Medial			L_Midfoot_Lateral			L_Hindfoot			L_Midfoot_Superior			L_ToeMedial			L_ToeLateral			Oglobal			Sacral			Xglobal			Yglobal			Zglobal			
		X1	Y1	Z1	X2	Y2	Z2	X3	Y3	Z3	X4	Y4	Z4	X5	Y5	Z5	X6	Y6	Z6	X7	Y7	Z7	X8	Y8	Z8	X9	Y9	Z9	X10	Y10	Z10	X11	Y11	Z11	X12	Y12	Z12	X13	Y13	Z13	X14	Y14	Z14	X15	Y15	Z15	X16	Y16	Z16	X17	Y17	Z17	X18	Y18	Z18	X19	Y19	Z19	X20	Y20	Z20	X21	Y21	Z21	X22	Y22	Z22	X23	Y23	Z23	X24	Y24	Z24	X25	Y25	Z25	X26	Y26	Z26	X27	Y27	Z27	X28	Y28	Z28	X29	Y29	Z29	X30	Y30	Z30	X31	Y31	Z31	X32	Y32	Z32	X33	Y33	Z33	X34	Y34	Z34	X35	Y35	Z35	X36	Y36	Z36	X37	Y37	Z37	X38	Y38	Z38	X39	Y39	Z39	X40	Y40	Z40	X41	Y41	Z41	X42	Y42	Z42	X43	Y43	Z43	X44	Y44	Z44	X45	Y45	Z45	X46	Y46	Z46	X47	Y47	Z47	X48	Y48	Z48	X49	Y49	Z49	X50	Y50	Z50	X51	Y51	Z51	X52	Y52	Z52	X53	Y53	Z53	X54	Y54	Z54	X55	Y55	Z55	X56	Y56	Z56	X57	Y57	Z57	X58	Y58	Z58	X59	Y59	Z59	X60	Y60	Z60	X61	Y61	Z61	X62	Y62	Z62	X63	Y63	Z63	X64	Y64	Z64	X65	Y65	Z65	X66	Y66	Z66	X67	Y67	Z67	X68	Y68	Z68	

1	0.758333	-1036.99	1445.95	116.056	-870.322	1376.74	93.2009	-917.263	1405.62	271.826	-989.909	1408.87	-66.828	-846.674	1204.49	104.948	-1119.33	1258.95	122.213	-939.239	967.546	256.196	-924.63	975.032	-22.2341	-1134.88	1011.41	139.519	-1130.59	1010.95	61.2362	-1132.41	1061.07	103.006	-935.721	1092.39	375.171	-0	0	0	-0	0	0	-0	0	0	-832.628	834.912	342.11	-837.607	844.753	299.095	-877.677	830.835	357.865	-1086.8	1088.7	-165.154	-0	0	0	-0	0	0	-0	0	0	-1073.82	821.001	-200.879	-1117.68	841.548	-200.725	-1059.02	832.802	-157.093	-948.6319999999999	805.542	-50.5193	-876.847	596.675	4.14582	-852.451	692.842	21.077	-0	0	0	-0	0	0	-819.879	518.208	72.2713	-888.623	444.228	-2.35147	-935.739	177.707	-3.30115	-886.194	300.079	70.49460000000001	-0	0	0	-0	0	0	-1017.95	777.492	274.439	-1011.23	562.85	245.11	-918.976	623.869	210.645	-0	0	0	-0	0	0	-941.798	449.329	192.913	-1125.46	447.525	253.861	-1278.01	309.806	238.829	-1131.37	334.759	183.056	-0	0	0	-0	0	0	-1410.3	295.303	173.062	-1270.95	32.6227	207.59	-1317.61	86.9097	144.852	-1345.3	99.2337	258.138	-1400.23	193.27	232.804	-1281.55	183.94	203.265	-1293.13	54.4921	158.594	-1311.68	62.0783	248.155	-1025.63	62.7512	47.1577	-725.842	55.0804	42.4575	-806.799	34.3031	96.8913	-818.09	33.5782	-17.0302	-924.13	28.0627	-9.6012	-860.4059999999999	120.155	42.579	-763.201	36.4133	86.2166	-762.6319999999999	38.1041	-8.84989	-0	0	0	-1132.74	1011.18	100.378	-200	0	0	-0	0	200	-0	200	0	
2	0.766667	-1028.8	1447.28	115.576	-862.066	1378.02	93.8583	-910.134	1407.03	272.277	-980.7569999999999	1410.11	-67.0659	-838.327	1206.08	105.345	-1111.2	1260.32	121.348	-931.6180000000001	966.663	255.187	-915.75	976.712	-22.992	-1126.09	1013.7	137.14	-1122.71	1011.46	60.2694	-1123.74	1062.4	102.089	-931.02	1093.54	375.189	-0	0	0	-0	0	0	-0	0	0	-829.673	834.822	343.094	-833.952	844.878	300.118	-874.838	831.333	358.674	-1073.02	1088.81	-166.371	-0	0	0	-0	0	0	-0	0	0	-1056.97	820.473	-201.466	-1099.43	840.9930000000001	-201.87	-1042.19	833.2329999999999	-157.457	-943.785	807.403	-51.0921	-873.359	596.917	2.82626	-846.917	692.379	18.6228	-0	0	0	-0	0	0	-821.265	514.2859999999999	69.5072	-885.211	443.387	-2.60064	-934.96	177.278	-3.42728	-885.2380000000001	299.771	70.7422	-0	0	0	-0	0	0	-1007.29	779.076	274.46	-995.574	564.466	246.473	-904.417	627.439	212.203	-0	0	0	-0	0	0	-924.102	452.263	195.576	-1108.39	449.915	254.59	-1260.73	312.385	238.079	-1113.7	337.256	183.029	-0	0	0	-0	0	0	-1393.23	296.185	170.161	-1249.7	36.5549	211.051	-1296.61	88.96680000000001	146.888	-1325.65	102.965	259.639	-1381.87	195.51	231.934	-1262.89	187.76	203.75	-1272.11	56.7863	161.769	-1291.29	66.38420000000001	250.912	-1025.62	62.8634	47.16	-725.806	54.8693	42.3108	-806.8440000000001	34.2086	96.9939	-818.091	33.4417	-16.9317	-923.951	27.9858	-9.640129999999999	-860.28	120.111	42.6182	-763.086	36.1781	86.0932	-762.694	38.0379	-8.869300000000001	-0	0	0	-1124.4	1012.58	98.7046	-200	0	0	-0	0	200	-0	200	0	
3	0.775	-1020.65	1448.7	115.222	-853.677	1379.48	94.2461	-902.956	1408.22	272.827	-971.649	1411.55	-67.2214	-830.03	1207.4	105.659	-1103.04	1261.7	120.372	-923.672	968.126	254.422	-906.683	978.391	-23.8414	-1117.81	1014.85	135.69	-1113.95	1012.78	58.7846	-1115.32	1063.64	100.53	-926.713	1094.6	375.69	-0	0	0	-0	0	0	-0	0	0	-826.746	835.051	343.991	-830.771	845.0839999999999	301.06	-872.178	831.8630000000001	359.551	-1058.98	1088.92	-167.635	-0	0	0	-0	0	0	-0	0	0	-1036.71	821.701	-201.424	-1080.91	840.664	-202.792	-1023.78	834.184	-157.163	-939.138	808.134	-52.4641	-869.673	597.226	2.25055	-841.434	692.096	16.971	-0	0	0	-0	0	0	-819.7670000000001	513.3680000000001	68.6652	-882.237	442.999	-2.89098	-934.027	176.977	-3.4897	-884.362	299.552	70.81319999999999	-0	0	0	-0	0	0	-997.329	780.86	275.25	-980.021	566.296	248.014	-890.178	631.157	213.765	-0	0	0	-0	0	0	-906.419	455.433	197.86	-1091.41	452.088	255.508	-1242.79	313.856	237.404	-1096.62	338.947	183.382	-0	0	0	-0	0	0	-1375.73	296.058	168.045	-1228.02	39.461	214.661	-1275.62	90.10209999999999	148.672	-1305.32	105.544	261.064	-1362.67	196.584	231.547	-1243.21	189.963	204.099	-1248.8	58.9801	165.534	-1270.03	69.2204	253.356	-1025.59	62.9729	47.185	-725.607	54.5094	42.3138	-806.836	34.1266	97.0022	-818.088	33.403	-16.9232	-924.013	27.9965	-9.63794	-860.182	120.097	42.6536	-763.224	36.3107	86.28400000000001	-762.678	38.016	-8.89786	-0	0	0	-1115.88	1013.82	97.2371	-200	0	0	-0	0	200	-0	200	0	
4	0.7833329999999999	-1012.5	1450.09	114.909	-845.343	1380.93	94.74850000000001	-895.771	1409.41	273.172	-962.471	1412.86	-67.2611	-822.001	1208.8	106.13	-1094.89	1263.12	119.435	-915.984	969.043	253.591	-898.861	980.155	-24.0273	-1110.06	1016.2	134.935	-1106.39	1014.21	58.067	-1107.58	1064.99	100.179	-922.3869999999999	1095.6	375.995	-0	0	0	-0	0	0	-0	0	0	-823.927	835.284	345.58	-827.628	844.829	301.924	-869.229	832.323	359.984	-1044.85	1089.09	-168.651	-0	0	0	-0	0	0	-0	0	0	-1017.38	822.227	-201.397	-1062.11	840.497	-203.573	-1005.65	835.128	-156.913	-934.297	808.586	-53.8783	-865.304	597.261	1.82356	-836.067	692.134	15.701	-0	0	0	-0	0	0	-815.894	513.619	68.63939999999999	-879.516	442.431	-2.74089	-934.8150000000001	177.819	-4.84949	-883.325	299.317	70.73220000000001	-0	0	0	-0	0	0	-985.375	782.123	273.758	-964.726	568.567	249.601	-876.09	635.362	215.442	-0	0	0	-0	0	0	-888.774	458.817	199.989	-1074.05	453.75	256.261	-1223.73	314.487	236.863	-1079.09	340.27	183.287	-0	0	0	-0	0	0	-1356.8	294.332	166.03	-1205.96	41.3283	218.016	-1253.43	89.6253	150.993	-1284.26	106.538	262.868	-1342.83	196.296	231.279	-1223.15	191.037	204.885	-1226.16	59.5271	168.481	-1248.2	70.7122	255.716	-1025.5	63.0577	47.1904	-725.559	54.4646	42.2173	-806.777	34.0142	97.0337	-818.006	33.3733	-16.8944	-924.045	28.0537	-9.59357	-860.091	120.045	42.7314	-763.053	36.0077	86.07769999999999	-762.625	37.9486	-8.91574	-0	0	0	-1108.23	1015.21	96.50109999999999	-200	0	0	-0	0	200	-0	200	0	
5	0.791667	-1004.37	1451.56	114.586	-837.087	1382.29	95.4858	-888.784	1410.57	273.813	-953.3200000000001	1414.38	-67.45699999999999	-813.9349999999999	1210.06	106.451	-1086.77	1264.44	118.363	-908.598	970.3	252.919	-890.557	981.5650000000001	-24.5263	-1102.27	1017.59	133.664	-1098.34	1015.64	56.9178	-1099.65	1066.4	98.9813	-917.675	1096.56	375.87	-0	0	0	-0	0	0	-0	0	0	-821.064	835.197	346.189	-824.138	845.093	303.203	-866.352	832.6799999999999	360.145	-1030.6	1089.45	-169.617	-0	0	0	-0	0	0	-0	0	0	-998.01	822.86	-201.287	-1042.94	840.534	-203.98	-987.189	836.05	-156.335	-929.6079999999999	808.732	-54.481	-860.574	598.104	3.09391	-830.853	691.867	15.2424	-0	0	0	-0	0	0	-812.33	513.415	68.7354	-877.831	442.544	-3.3716	-934.611	178.149	-4.9894	-882.02	299.178	70.3995	-0	0	0	-0	0	0	-974.63	783.612	273.606	-949.806	571.114	251.29	-862.205	639.564	217.137	-0	0	0	-0	0	0	-871.365	462.536	202.158	-1056.9	455.306	257.109	-1205.05	314.478	237.218	-1060.21	341.788	184.057	-0	0	0	-0	0	0	-1337.15	291.743	164.433	-1182.81	41.865	220.853	-1230.64	88.42230000000001	152.962	-1262.59	106.374	264.359	-1322.28	194.871	231.076	-1202.61	191.224	205.608	-1203.22	59.0987	170.851	-1226.08	71.14060000000001	257.849	-1025.49	63.1465	47.2091	-725.414	54.2311	42.2202	-806.804	33.9081	97.09610000000001	-818.018	33.2246	-16.8333	-923.9059999999999	28.0366	-9.572939999999999	-860.019	119.968	42.7457	-763.037	35.9316	86.0123	-762.662	37.8937	-8.911379999999999	-0	0	0	-1100.31	1016.61	95.2907	-200	0	0	-0	0	200	-0	200	0	
